<svg id="Layer_1" data-name="Layer 1" xmlns="http://www.w3.org/2000/svg" viewBox="0 0 529 201"><defs><style>.cls-1{fill:#231f20;}.cls-2{fill:#fff;}.cls-3{fill:#392e34;}.cls-4{fill:#f4ec65;}.cls-5{fill:#f0e88e;}.cls-6{fill:#141415;}.cls-7{fill:#dc91b1;}</style></defs><path class="cls-1" d="M37.57,38.79V153.37h-13V38.79Z"/><path class="cls-1" d="M108.3,151.36c-3.53,1.84-9.28,3-16.44,3-22.31,0-38.37-18-38.37-56.92,0-45.18,22.39-59.7,40.53-59.7,6.91,0,11.92,1.34,14.25,2.82l-2.89,11.17c-2.79-1.31-5.56-2.45-11.53-2.45-12.2,0-26.63,12-26.63,46.85,0,35.15,12.92,46.59,27,46.59a29.65,29.65,0,0,0,12-2.43Z"/><path class="cls-1" d="M191,104c-.74-15.13-1.54-31.87-1.14-44.89h-.69C186.66,71.91,183.6,85.6,180.05,99L166,152.65h-8.34L144.2,101.13c-3.79-14.58-7.15-28.74-9.4-42h-.57c.08,13.5-.65,29.53-1.4,45.84l-2.11,48.4H118.91l6.82-114.58H140L153.33,91.2c3.84,15.11,6.73,26.35,9.2,39.39H163c2.24-13.06,4.79-24,8.46-39.39l13-52.41h14.65l6.54,114.58H193.43Z"/><path class="cls-1" d="M273,112.16c0,31.83-14.78,42.57-27.36,42.57-14.73,0-26.75-13.45-26.75-42.37,0-30,13.45-42.56,27.63-42.56C261.12,69.8,273,83.55,273,112.16Zm-40.94,0c0,13.62,2.45,32.07,14.21,32.07,11.26,0,13.56-19.22,13.56-32.07,0-12.59-2.3-32-13.9-32S232,99.62,232,112.21Z"/><path class="cls-1" d="M288.71,40.49a76.64,76.64,0,0,1,19.14-2.21c10.35,0,19.19,2.21,25.25,7.92,5,4.61,7.51,11.53,7.51,19.64,0,11.66-6.42,21-17.57,25.41v.44c13.26,3.56,21.2,14.25,21.2,29.26,0,9.4-3.07,17.07-8.15,22.68C329.6,151,319,154,305.75,154a100.32,100.32,0,0,1-17-1.12Zm13,47h6c10.66,0,19.81-8.26,19.81-20.23,0-10.57-4.87-18.72-18.86-18.72a24.14,24.14,0,0,0-7,.8Zm0,55.56a32.52,32.52,0,0,0,6.63.58c13.55,0,22.37-7.92,22.37-22.75,0-15.76-11-23.28-23.27-23.4H301.7Z"/><path class="cls-1" d="M373,49.84c.05,5.13-3.05,8.49-8,8.49-4.24,0-7.52-3.36-7.47-8.49s3.33-8.54,7.69-8.54C370,41.3,373,44.66,373,49.84Zm-14.2,103.53V71.16h13v82.21Z"/><ellipse class="cls-2" cx="371.08" cy="49.04" rx="18" ry="13.31"/><path class="cls-3" d="M444.2,26.37A27.46,27.46,0,0,0,449.88,25a6.51,6.51,0,0,1,5.48.72,8.69,8.69,0,0,1,3,2.67,1.48,1.48,0,0,0,1.83.68,4.34,4.34,0,0,1,5.46,2.13,14,14,0,0,0,6.47,5.33A15.82,15.82,0,0,1,480.83,46a2.07,2.07,0,0,0,.63,1c5.18,3.92,8.49,9.26,11.06,15.06a147,147,0,0,1,9.84,28.66,64.33,64.33,0,0,1,1.15,19A123.33,123.33,0,0,1,501.78,124a32.85,32.85,0,0,1-4.5,11.6,7,7,0,0,1-7.26,3.43,1.11,1.11,0,0,1-.45-.11c-2.78-1.86-6-2.1-9.2-2.69a11.46,11.46,0,0,1-4.32-1.66c-.76-.51-1.16-.17-1.3.52a34.82,34.82,0,0,0-.51,3.67,90.45,90.45,0,0,0,.16,13.87c.21,2.75.39,5.49.74,8.22.21,1.63,1.08,2.2,2.48,1.43,3.48-1.92,6.19-4.52,6.64-8.76a23.39,23.39,0,0,1,1.2-3.95c.32-1.09,3.14-1.11,3.82-.15,2.35,3.32,1.7,6.29-.43,8.88a21.38,21.38,0,0,1-11.49,7.34,10.33,10.33,0,0,1-3-.06c-1.52-.08-1.43-1-1.61-2-.56-2.74-.58-5.54-.9-8.31-.42-3.64.34-3-3.08-2.81a47.68,47.68,0,0,1-7.17.18,14,14,0,0,1-7-2.58c-.68-.48-1.18-.68-1.82.07-1.16,1.34-2.8,1.56-4.44,1.67-1.07.08-2.15,0-3.31,0,.45,1.78,1.09,3.47,1.45,5.25a33.28,33.28,0,0,1,.07,11.9c-.52,3.34-1.18,6.66-1.76,10a1.35,1.35,0,0,0,.05,1l4.8-1.65a5.57,5.57,0,0,1,6.38,2.47c.73,1.29-.21,4.33-1.55,4.93a1.4,1.4,0,0,1-.81.07c-2.89-.73-5.88-.54-8.8-.9a3.52,3.52,0,0,1-3.41-4,66.78,66.78,0,0,1,2.16-11.1c1.67-6.41.28-12.42-2.74-18.11-1.35-2.54-3.09-2.58-4.94-.34s-2.8,5.07-3.64,7.86a19.12,19.12,0,0,1-2.36,5.84,1.18,1.18,0,0,1-1.39.59c-2.43-.56-4.88-1.08-7.33-1.59a2.21,2.21,0,0,1-1.47-1.09,10.82,10.82,0,0,1-1.51-6.19,87.63,87.63,0,0,1,1.22-11.76c.59-3.9,1.22-7.78,1.84-11.67a1.73,1.73,0,0,0-1-2.13,19.56,19.56,0,0,1-2-1.25c-1-.64-1.66-.48-2.21.6a30.71,30.71,0,0,0-1.2,3.74c-1.57,4.31-3.57,8.36-7.1,11.44a2,2,0,0,1-3.3-.57,62,62,0,0,1-3.51-7.3l-3.21-7.07c-1.06,1.7-1,3.54-1.33,5.26a11.83,11.83,0,0,1-1.89,5.11c-.52.7-.92.76-1.43,0a6.22,6.22,0,0,1-1.19-3.58,29.12,29.12,0,0,1,2.86-12.21c1.24-2.61,1.79-2.6,3.58-.31s3,5,4.74,7.45a20.52,20.52,0,0,1,2.77,5.26c.15.44.3,1,.87,1s.69-.49.91-.86a19,19,0,0,1,1.11-2c3.22-4.39,4.25-9.33,4-14.7a35.47,35.47,0,0,1,.51-10.13,5,5,0,0,0-.47-3.67A24.61,24.61,0,0,1,410.37,98a2.21,2.21,0,0,1,2.53,1.46,11.92,11.92,0,0,0,1.16,4.59,4.76,4.76,0,0,0,4,2.85,10.62,10.62,0,0,1,6.12,2.69,37.83,37.83,0,0,1,6.68,8.24c2.56,3.83,5.52,7.14,9.75,9.28s6.87,5.55,8.79,9.77a34.1,34.1,0,0,0,5.76,8.75c1.25,1.39,3,2.35,4.83,1.57a5.59,5.59,0,0,1,6.28.66c1.33,1,2.43.55,3.28-.89a8.93,8.93,0,0,0,.61-1.29,16.75,16.75,0,0,0-.38-13.33,8.73,8.73,0,0,1-1-3.52c0-5.48-2.44-9.69-6.66-13a15.8,15.8,0,0,1-4.19-4.08c-2.44-4.2-5.44-8-7.88-12.26a16.57,16.57,0,0,1-2.39-5.68,29.11,29.11,0,0,1,.38-10,21.44,21.44,0,0,1,2.2-6.89c.33-.59.63-1.5,1.48-1.32s1,1.2,1.2,2a2,2,0,0,1-.09.83c-.24,1.08-.52,2.15-.76,3.24-.74,3.29-1.79,6.52-1.54,10A3.54,3.54,0,0,0,452.56,95a6.49,6.49,0,0,1,2.74,2.43,19,19,0,0,1,2.38,5.82,4.42,4.42,0,0,0,2,3,20.59,20.59,0,0,1,5.23,4.7c1.13,1.3,2.18,2.66,3.36,3.9,2.34,2.48,3.64,2.18,4.81-1,.76-2.06,1.13-4.21,1.68-6.32.15-.58.29-1.35,1.11-1.38s1.18.57,1.5,1.19a2.67,2.67,0,0,1,.25,1.28A18.84,18.84,0,0,1,476,116c-1,2.23-.63,3.18,1.42,4.47a4.38,4.38,0,0,1,2.45,3.2c.11,1,.11,2.2-.85,2.82s-1.61-.31-2.27-.84c-.93-.75-1.83-1.54-2.75-2.31-.65-.56-1.14-.45-1.43.37a4.2,4.2,0,0,0-.11,2.69c.73,2.54,5.39,5.8,8.4,5.88a6,6,0,0,0,2.7-.33c1.83-.83,3.22-.39,4.56,1.1,2.1,2.34,4.36,2.09,6.08-.55a10.23,10.23,0,0,0,1.59-4.94,4.51,4.51,0,0,1,2-3.74,6.6,6.6,0,0,0,2.64-4.37,13.23,13.23,0,0,0-.06-3.33,109.88,109.88,0,0,1,.66-12.17,39.49,39.49,0,0,0-1-10.55c-.46-2.42-.93-4.83-2.58-6.82a3.52,3.52,0,0,1-.65-2.26,28.59,28.59,0,0,0-.51-5.22c-.45-2.33-1.12-4.62-3.24-6a4.43,4.43,0,0,1-1.86-2.79,15.35,15.35,0,0,1-.2-2,22.88,22.88,0,0,0-6.53-13c-2.84-3-5.58-6-7-10A9.55,9.55,0,0,0,475.31,42c-1.29-1.4-2.65-2.36-4.72-1.47a2.39,2.39,0,0,1-3.1-1.11,23.64,23.64,0,0,1-1.9-3.84,7.14,7.14,0,0,0-2.1-2.87c-1.54-1.15-3.72-.41-3.88,1.34-.37,4.25-.78,8.49-.75,12.77a2.93,2.93,0,0,0,.56,1.76,22.26,22.26,0,0,1,3.24,6.75,44,44,0,0,1,1.56,15.48,5.68,5.68,0,0,0,.07,1.43,56.21,56.21,0,0,1,1.08,10.19,70.51,70.51,0,0,1-.54,9.19c-.22,1.8-.61,3.59-1,5.38-.11.49-.31,1.17-1.08,1a1.23,1.23,0,0,1-1-1.32,10.14,10.14,0,0,1,.1-1.9c.32-1.76.64-3.52.82-5.3a55.89,55.89,0,0,0-1.13-17.68,13.2,13.2,0,0,1-.43-5.44,14.61,14.61,0,0,0-2.35-12.14A14.14,14.14,0,0,1,456,44.84a29,29,0,0,1,1.29-6,9.83,9.83,0,0,0,.12-6.09,2.94,2.94,0,0,0-2.61-2.31c-2.95-.09-5.9,0-8.85,0C444.62,29.36,444.49,27.83,444.2,26.37ZM427.73,134.64c-2.61,0-3.41.46-4.08,2.42a14.63,14.63,0,0,0-.48,1.84c-1,5.19-1.64,10.43-2.35,15.67a4.87,4.87,0,0,0,.45,3.6c.7,1,1.85,1.14,2.93,1.42,4.14,1,4.9.57,5.94-3.55.73-2.92,1.39-5.89,3.11-8.45a6.77,6.77,0,0,1,7.38-3.19c2.73.52,5.48.95,8.18,1.55.89.2,1-.18,1.19-.79a1.35,1.35,0,0,0-.4-1.29c-1.27-1.73-2.73-3.36-3.43-5.44a15.54,15.54,0,0,0-4.36-6.18c-1.64-1.56-2.52-1.55-4.16.05a9,9,0,0,1-4.68,2.43C431.19,135.09,429.48,134.53,427.73,134.64Zm2.07-5.92,1.92-.08c.5,0,.66-.22.42-.67-1.12-2.15-1.77-4.57-3.38-6.42s-2.9-3.7-4.32-5.57a9.38,9.38,0,0,0-3.47-3.24c-2.26-1-5.4-1-5.88,2.62a25.28,25.28,0,0,0-.29,2.73c-.06,2.47.72,4.52,3,5.8,1.49.84,2.88,1.85,4.38,2.68A15.4,15.4,0,0,0,429.8,128.72Z"/><path class="cls-4" d="M444.2,26.37c.29,1.46.42,3,1.73,4a.54.54,0,0,1,0,.22,4.25,4.25,0,0,1-4.08,2.86,28.59,28.59,0,0,1-3.05-.21,2.86,2.86,0,0,0-3.09-1.06,9.57,9.57,0,0,1-1.78.11,1.54,1.54,0,0,0-1.82-1.2c-1.83.28-3.65-.12-5.48,0-5.26.33-10.39-.64-15.53-1.51-4.55-.78-9.14-1.22-13.74-1.61-2.26-.2-4.51-.45-6.77-.65s-4.37-.34-6.55-.51l-5.5-1.31L381,32.16c-.4.8-.93.76-1.52.21a7.84,7.84,0,0,0-1-1,1.79,1.79,0,0,0-2.2-.13,3.18,3.18,0,0,0-.69,3.19,1.44,1.44,0,0,0,1.62,1.2c.74,0,1.48,0,2.23,0A2.31,2.31,0,0,1,382,37.17a25.81,25.81,0,0,1-.3,5.12,17,17,0,0,1-7.6,12.42c-.83.55-1.69,1-2.52,1.59-.24.15-.71.26-.36.68,1.36,1.65,2.55,3.54,5.05,3.58a4.82,4.82,0,0,0,2.44,3.19c3.29,2.22,6.7,4.3,9.23,7.46a30.25,30.25,0,0,0,3.37,3.87,4.85,4.85,0,0,0,3.62,1.52c.89,1.05,1.57,2.33,3,2.74,2.95,4.36,7.26,7.22,11.34,10.32L411.65,92a1.93,1.93,0,0,0,.22.28,2.86,2.86,0,0,1,1,3.68c-.45,1.28-1.53,1-2.5,1h-.6c-5.59-4.68-11.15-9.39-16.78-14-4-3.3-8-6.72-12.11-9.92a31.87,31.87,0,0,1-3.72-3.54,13.23,13.23,0,0,0-4.66-3A2.82,2.82,0,0,1,371,65.29a4.68,4.68,0,0,0-2.26-2.38A3.61,3.61,0,0,0,367.25,61q-4.2-3.36-8.35-6.79C353,49.31,350.63,43,351.29,35.5c.56-6.35,3.35-11.49,8.88-14.92a11.72,11.72,0,0,1,9.54-1.34c1.46.39,2.9.85,4.38,1.18a7.6,7.6,0,0,0,5.79-.63,57.48,57.48,0,0,0,13.33,1.76,115.23,115.23,0,0,1,16.36,1.55,52.74,52.74,0,0,0,6.89.54,128.8,128.8,0,0,1,20.74,2.09A36.47,36.47,0,0,0,444.2,26.37Z"/><path class="cls-5" d="M438.76,33.25a28.59,28.59,0,0,0,3.05.21,4.25,4.25,0,0,0,4.08-2.86c-.1.79.5,1.32.75,2a30.37,30.37,0,0,1,1.55,7.68A37.18,37.18,0,0,1,448,50.69a48.38,48.38,0,0,1-3.69,11.44,36.72,36.72,0,0,1-2.38,5.18c-.37-.28-.56-1-1.05-.83s-.35.89-.39,1.38c-.08,1-.1,1.91-.21,2.85-.39,3.43-1.41,6.76-1.6,10.22-.69.82-1.33,1.68-2.06,2.46a6.87,6.87,0,0,1-4.79,2.55,19.14,19.14,0,0,1-.79-6,35,35,0,0,0-.27-3.69c-.09-.71-.39-1.44-1.28-1.51s-1.33.58-1.57,1.35a10.9,10.9,0,0,0-.43,3c-.16,4.14.78,8.15,1.42,12.2-.92,1.35-1.63,2.82-2.61,4.14-3.55,4.81-7.95,6.17-13.38,4.06A2.21,2.21,0,0,0,410.37,98l-.64-.95h.6c1,0,2.05.24,2.5-1a2.86,2.86,0,0,0-1-3.68,1.93,1.93,0,0,1-.22-.28,25.25,25.25,0,0,0,.53-5.81A2.39,2.39,0,0,0,410,83.76c-2.22-1.42-4-3.39-6-5a6.41,6.41,0,0,0-3.76-1.87c-.55-.61-1.07-1.27-1.66-1.84a5.39,5.39,0,0,0-3.65-2,9.91,9.91,0,0,0-3.33-3.33c-2.19-1.51-4.21-3.14-5.38-5.62-.11-.24-.34-.51-.12-.76s.51-.05.77,0a11.26,11.26,0,0,1,3.7,1.88c2,1.4,3.69,3.29,6.05,4.18,1.35.92,2.39,2.35,4.16,2.58a25.08,25.08,0,0,1,3.84,3c1.65,1.33,3.14,2.9,5.24,3.58a4.12,4.12,0,0,0,.37.61c.84,1,1.35,1,1.86-.23a16.84,16.84,0,0,0,.55-1.7,83.51,83.51,0,0,1,3-9.92,12.43,12.43,0,0,1,4.42-5.95,2.08,2.08,0,0,0,.81-1.28c.21-.68.34-1.39.52-2.08.75-2.82,1.68-5.54,3.8-7.69a1.38,1.38,0,0,0-.51-2.18,7.77,7.77,0,0,0-1.27-.28c-1-.47-2.1-.91-3.12-1.43-2.1-1-4.15-2.15-6.65-1.93-1,.09-1.6-1-1.56-2.52,0-1.1.61-1.53,1.67-1.57a6.62,6.62,0,0,1,3.67,1.16c2.85,1.63,5.63,3.5,9.17,3.17.12.11.23.23.35.33,2.12,1.68,2.75,1.51,3.45-1.1a15.9,15.9,0,0,1,7.2-9.74C438.05,34,438.62,33.85,438.76,33.25ZM433,61.51c-.67-.48-1.26-.94-1.88-1.35-.38-.26-.75-.74-1.26-.44a1.68,1.68,0,0,0-.66,1.47,2.33,2.33,0,0,0,.7,1.6A10.27,10.27,0,0,1,432,67.91c.09.59.15,1.19.29,1.76s.4,1.2,1.15,1.15a1.36,1.36,0,0,0,1.21-1.15,5.83,5.83,0,0,0,.16-2.49,10.7,10.7,0,0,1,.32-4.14,22.61,22.61,0,0,1,1.72-4.56c.55-1.17.13-2.62-.84-2.88-1.32-.35-1.43.89-1.72,1.66C433.77,58.62,433.43,60,433,61.51ZM415.51,83.2c1.35-.28,2.56-.49,3.74-.8a2.9,2.9,0,0,0,2.13-3,5.05,5.05,0,0,0-.75-2.25,7.75,7.75,0,0,1-1.36-4.26,6.46,6.46,0,0,0-.43-1.6c-.12-.53-.54-.59-.93-.54s-.26.5-.24.77a21.28,21.28,0,0,1,.11,3.57A26.32,26.32,0,0,1,415.51,83.2Zm23.11-43.64a25.56,25.56,0,0,1,1.82,10.17c-.05.81.2,1.68,1.24,1.73s1.23-.77,1.37-1.52a12.52,12.52,0,0,0-.51-6.7A5.78,5.78,0,0,0,438.62,39.56Z"/><path class="cls-6" d="M379.88,19.79a7.6,7.6,0,0,1-5.79.63c-1.48-.33-2.92-.79-4.38-1.18a11.72,11.72,0,0,0-9.54,1.34c-5.53,3.43-8.32,8.57-8.88,14.92C350.63,43,353,49.31,358.9,54.18Q363,57.61,367.25,61a3.61,3.61,0,0,1,1.48,1.94c-6.89.57-12-2.46-15.83-7.93a30,30,0,0,1-5.29-14.63,29.12,29.12,0,0,1,3-16.94,20.1,20.1,0,0,1,14.11-10.86,11.25,11.25,0,0,1,6.33.71A22.19,22.19,0,0,1,379.88,19.79Z"/><path class="cls-7" d="M412.9,99.42c5.43,2.11,9.83.75,13.38-4.06,1-1.32,1.69-2.79,2.61-4.14a2.84,2.84,0,0,1,0,3.73,4.58,4.58,0,0,0-1.2,2.92c0,.27-.07.61.24.75s.49-.18.69-.34a5.06,5.06,0,0,1,3.56-1.44c1.9.14,2.61-.63,2.36-2.55a14.54,14.54,0,0,0-1.23-3.85,14.67,14.67,0,0,1-1.51-4.5,6.87,6.87,0,0,0,4.79-2.55c.73-.78,1.37-1.64,2.06-2.46a7.37,7.37,0,0,1,1.64,6.37c-.23,1.7-.53,3.38-.76,5.08a5.07,5.07,0,0,0,.3,3.05,1.37,1.37,0,0,0,1.18.89c.64,0,.92-.4,1.14-.89a3.19,3.19,0,0,0,.29-.78c.84-4.37,1.47-8.74.08-13.12a10.44,10.44,0,0,1-.29-4.84,24.88,24.88,0,0,0-.33-9.38,36.72,36.72,0,0,0,2.38-5.18A48.38,48.38,0,0,0,448,50.69a37.18,37.18,0,0,0,.21-10.43,30.37,30.37,0,0,0-1.55-7.68c-.25-.66-.85-1.19-.75-2a.54.54,0,0,0,0-.22c2.95,0,5.9-.07,8.85,0a2.94,2.94,0,0,1,2.61,2.31,9.83,9.83,0,0,1-.12,6.09,29,29,0,0,0-1.29,6,14.14,14.14,0,0,0,2.78,9.43,14.61,14.61,0,0,1,2.35,12.14,13.2,13.2,0,0,0,.43,5.44,55.89,55.89,0,0,1,1.13,17.68c-.18,1.78-.5,3.54-.82,5.3a10.14,10.14,0,0,0-.1,1.9,1.23,1.23,0,0,0,1,1.32c.77.15,1-.53,1.08-1,.4-1.79.79-3.58,1-5.38a70.51,70.51,0,0,0,.54-9.19,56.21,56.21,0,0,0-1.08-10.19,5.68,5.68,0,0,1-.07-1.43,44,44,0,0,0-1.56-15.48,22.26,22.26,0,0,0-3.24-6.75,2.93,2.93,0,0,1-.56-1.76c0-4.28.38-8.52.75-12.77.16-1.75,2.34-2.49,3.88-1.34a7.14,7.14,0,0,1,2.1,2.87,23.64,23.64,0,0,0,1.9,3.84,2.39,2.39,0,0,0,3.1,1.11c2.07-.89,3.43.07,4.72,1.47a9.55,9.55,0,0,1,2.09,3.18c1.42,4,4.16,7,7,10a22.88,22.88,0,0,1,6.53,13,15.35,15.35,0,0,0,.2,2A4.43,4.43,0,0,0,493,73c2.12,1.41,2.79,3.7,3.24,6a28.59,28.59,0,0,1,.51,5.22,3.52,3.52,0,0,0,.65,2.26c1.65,2,2.12,4.4,2.58,6.82a39.49,39.49,0,0,1,1,10.55,109.88,109.88,0,0,0-.66,12.17,13.23,13.23,0,0,1,.06,3.33,6.6,6.6,0,0,1-2.64,4.37,4.51,4.51,0,0,0-2,3.74,10.23,10.23,0,0,1-1.59,4.94c-1.72,2.64-4,2.89-6.08.55-1.34-1.49-2.73-1.93-4.56-1.1a6,6,0,0,1-2.7.33c-3-.08-7.67-3.34-8.4-5.88a4.2,4.2,0,0,1,.11-2.69c.29-.82.78-.93,1.43-.37.92.77,1.82,1.56,2.75,2.31.66.53,1.34,1.43,2.27.84s1-1.79.85-2.82a4.38,4.38,0,0,0-2.45-3.2c-2-1.29-2.4-2.24-1.42-4.47a18.84,18.84,0,0,0,1.6-7.39,2.67,2.67,0,0,0-.25-1.28c-.32-.62-.71-1.22-1.5-1.19s-1,.8-1.11,1.38c-.55,2.11-.92,4.26-1.68,6.32-1.17,3.19-2.47,3.49-4.81,1-1.18-1.24-2.23-2.6-3.36-3.9a20.59,20.59,0,0,0-5.23-4.7,4.42,4.42,0,0,1-2-3,19,19,0,0,0-2.38-5.82A6.49,6.49,0,0,0,452.56,95a3.54,3.54,0,0,1-2.09-3.33c-.25-3.45.8-6.68,1.54-10,.24-1.09.52-2.16.76-3.24a2,2,0,0,0,.09-.83c-.15-.82-.25-1.82-1.2-2s-1.15.73-1.48,1.32a21.44,21.44,0,0,0-2.2,6.89,29.11,29.11,0,0,0-.38,10A16.57,16.57,0,0,0,450,99.43c2.44,4.21,5.44,8.06,7.88,12.26a15.8,15.8,0,0,0,4.19,4.08c4.22,3.33,6.63,7.54,6.66,13a8.73,8.73,0,0,0,1,3.52,16.75,16.75,0,0,1,.38,13.33,8.93,8.93,0,0,1-.61,1.29c-.85,1.44-1.95,1.89-3.28.89a5.59,5.59,0,0,0-6.28-.66c-1.8.78-3.58-.18-4.83-1.57a34.1,34.1,0,0,1-5.76-8.75c-1.92-4.22-4.66-7.69-8.79-9.77s-7.19-5.45-9.75-9.28a37.83,37.83,0,0,0-6.68-8.24,10.62,10.62,0,0,0-6.12-2.69,4.76,4.76,0,0,1-4-2.85A11.92,11.92,0,0,1,412.9,99.42ZM466.05,62.6a4.23,4.23,0,0,0,.28,1.89A1.68,1.68,0,0,0,468,65.64c.81,0,1.08-.58,1.3-1.19a10.12,10.12,0,0,0,.44-3.19,10.82,10.82,0,0,1,.65-4.1,1.57,1.57,0,0,1,2.24-.94,6,6,0,0,1,2.62,2A35.7,35.7,0,0,0,477.45,61c.77.84,1.42.7,2-.32a4.08,4.08,0,0,0-.07-4.12,11.9,11.9,0,0,0-3.57-4.12,4.46,4.46,0,0,0-4.28-.81c-1.16.43-1.71,0-2.08-1.07-.44-1.24-.91-2.47-1.41-3.68-.18-.45-.5-.87-1.09-.72a1.18,1.18,0,0,0-.84,1.06,4.25,4.25,0,0,0,.35,2.22,8.21,8.21,0,0,1,.47,4C466.52,56.41,466.33,59.39,466.05,62.6Zm5.71,12c-1.35-.14-2,.21-2.33,1.48a21.3,21.3,0,0,0-.69,5.09A2.59,2.59,0,0,0,470,83.8c2.59,1.15,2.73,3,1.51,5.21a19.2,19.2,0,0,0-2,6.21,8.41,8.41,0,0,0-.11,4.14,1.69,1.69,0,0,0,1.6,1.39c.87,0,.86-.93.89-1.6a35.89,35.89,0,0,1,1.37-7.75c.16-.58.37-1.18,1-1.33a1.76,1.76,0,0,1,1.76.79,6.45,6.45,0,0,1,1.27,2.82c.3,1.31.46,2.67.77,4,.15.67.33,1.56,1.28,1.46s1.23-.87,1.31-1.65c.23-2.26.16-4.53-1.14-6.48-2.2-3.3-4.1-6.85-7.38-9.34a3.76,3.76,0,0,1-1.29-4.41C471.13,76.34,471.45,75.45,471.76,74.56Zm-25.61,33.87a13.88,13.88,0,0,0,3.08,6.61c1.51,1.7,3.15,3.28,4.72,4.93a20.44,20.44,0,0,1,5.28,9.89c.19.89.38,1.79.63,2.67.12.41.34.86.86.89a1.22,1.22,0,0,0,1.11-.79,4,4,0,0,0,.27-2.9,29.18,29.18,0,0,0-1.37-4.08,4.34,4.34,0,0,1-.14-3.13,7.34,7.34,0,0,0,.44-2.82,2,2,0,0,0-1.53-2,11.7,11.7,0,0,1-4.76-2.64Zm44.92.57c-.06-.52.05-1.23-.57-1.55s-.91.32-1.31.6c-1.08.74-1.61.62-2.7-.67s-2-1.17-2.54.47a5.08,5.08,0,0,0,.83,4.53c1,1.53,1.14,3-.82,4a1.82,1.82,0,0,0-.79,2.65c1.45,1.5,2.55,3.29,4.14,4.64a2.65,2.65,0,0,0,2.64.71c1.74-.55,3.83-3.85,3.55-5.66a1.49,1.49,0,0,0-1-1.38c-.69-.2-1,.35-1.32.8-.57.82-1.09,1.7-2.31,1.62-.13,0-.28.13-.4.22-1.18.85-1.31.79-1.61-.64a5.89,5.89,0,0,1-.05-2c.28-2.1,1.54-3.63,2.82-5.17A4.87,4.87,0,0,0,491.07,109Zm-7.52-25.11c0,1.3.73,2.5,1.54,2.48,1.2,0,1.35-1.06,1.6-1.94a12.16,12.16,0,0,1,1.23-3.35c.66-1,1.36-1.12,2.25-.27A12.53,12.53,0,0,1,492,83.34c.39.62.63,1.6,1.56,1.39s1-1.15,1.18-1.93a2.61,2.61,0,0,0,0-1.18,8.43,8.43,0,0,0-2.55-4.37,2.9,2.9,0,0,0-2.31-.79,2.36,2.36,0,0,1-2.51-1.62,10.36,10.36,0,0,1-.63-2.17,2.82,2.82,0,0,0-1-1.86c-.3-.21-.7-.4-1-.23s-.07.57,0,.87c.71,3.82,1,7.6-.9,11.22A2.33,2.33,0,0,0,483.55,83.89Zm-34.26-32.6a7.36,7.36,0,0,0,.3,2.6c.16.56.49,1,1.16,1a1.26,1.26,0,0,0,1.19-1,4.25,4.25,0,0,0,.23-1.41c0-.72.06-1.44.13-2.15.36-3.35,1.66-6.48,2.37-9.75a13.08,13.08,0,0,0,.65-3.87,1.35,1.35,0,0,0-1-1.33c-.69-.17-1,.33-1.25.87A11.48,11.48,0,0,1,451,39.17a6.38,6.38,0,0,0-1.86,5.7A19.79,19.79,0,0,1,449.29,51.29ZM444,116.15c0-1.73-.59-2.3-2.31-2.2a5.64,5.64,0,0,1-3.48-1.06,14.47,14.47,0,0,1-2.55-2.33c-.7-.74-1-.64-1.35.32a1.75,1.75,0,0,0,.28,1.48,28.91,28.91,0,0,0,3,4.34,7.93,7.93,0,0,0,2.41,1.94C442.33,119.84,444,118.81,444,116.15Zm54.4-8.53c-.23-1.62-.21-3.3-1.17-4.72a1.45,1.45,0,0,0-1.75-.7c-.82.29-.71,1-.54,1.62a8.31,8.31,0,0,1-.21,4.81,4.72,4.72,0,0,0-.16,3.06c.24.68.49,1.47,1.31,1.56s1.32-.63,1.67-1.32C498.24,110.57,498.16,109.06,498.4,107.62Z"/><path class="cls-7" d="M427.73,134.64c1.75-.11,3.46.45,5.24.09a9,9,0,0,0,4.68-2.43c1.64-1.6,2.52-1.61,4.16-.05a15.54,15.54,0,0,1,4.36,6.18c.7,2.08,2.16,3.71,3.43,5.44a1.35,1.35,0,0,1,.4,1.29c-.18.61-.3,1-1.19.79-2.7-.6-5.45-1-8.18-1.55a6.77,6.77,0,0,0-7.38,3.19c-1.72,2.56-2.38,5.53-3.11,8.45-1,4.12-1.8,4.59-5.94,3.55-1.08-.28-2.23-.43-2.93-1.42a4.87,4.87,0,0,1-.45-3.6c.71-5.24,1.33-10.48,2.35-15.67a14.63,14.63,0,0,1,.48-1.84C424.32,135.1,425.12,134.63,427.73,134.64Z"/><path class="cls-7" d="M429.8,128.72a15.4,15.4,0,0,1-7.6-2.15c-1.5-.83-2.89-1.84-4.38-2.68-2.3-1.28-3.08-3.33-3-5.8a25.28,25.28,0,0,1,.29-2.73c.48-3.58,3.62-3.63,5.88-2.62a9.38,9.38,0,0,1,3.47,3.24c1.42,1.87,2.78,3.78,4.32,5.57s2.26,4.27,3.38,6.42c.24.45.08.66-.42.67Z"/><path class="cls-5" d="M385.37,33.23A121.16,121.16,0,0,0,402.1,38a2.85,2.85,0,0,1,2.07,4c-.26.64-.78.72-1.38.65A42.62,42.62,0,0,1,392.3,40c-1.61-.6-3.23-1.14-4.83-1.73a4.23,4.23,0,0,0-1.65-.19L384,37.27c-.65-.28-1.31-.59-2-.1a2.31,2.31,0,0,0-2.54-1.52c-.75.05-1.49,0-2.23,0a1.44,1.44,0,0,1-1.62-1.2,3.18,3.18,0,0,1,.69-3.19,1.79,1.79,0,0,1,2.2.13,7.84,7.84,0,0,1,1,1c.59.55,1.12.59,1.52-.21A3.84,3.84,0,0,0,385.37,33.23Z"/><path class="cls-6" d="M382,37.17c.69-.49,1.35-.18,2,.1l1.84.79c.14,8.07-2.34,15.12-8.11,20.91-.5.51-1,1.06-1.46,1.59-2.5,0-3.69-1.93-5.05-3.58-.35-.42.12-.53.36-.68.83-.54,1.69-1,2.52-1.59a17,17,0,0,0,7.6-12.42A25.81,25.81,0,0,0,382,37.17Z"/><path class="cls-3" d="M426.64,44.74q1.85-3.7,3.7-7.43a16.64,16.64,0,0,1,3.54-5,9.62,9.62,0,0,0,1.79-.11,2.86,2.86,0,0,1,3.09,1.06c-.14.6-.71.72-1.12,1a15.9,15.9,0,0,0-7.2,9.74c-.7,2.61-1.33,2.78-3.45,1.1C426.87,45,426.76,44.85,426.64,44.74Z"/><path class="cls-3" d="M385.37,33.23A3.84,3.84,0,0,1,381,32.16c-.82-2.15-1.63-4.29-2.54-6.66l5.5,1.31Q384.69,30,385.37,33.23Z"/><path class="cls-3" d="M400.25,76.85a4.07,4.07,0,0,1-2.31,2.49c-1.46-.41-2.14-1.69-3-2.74l0-3.54a5.39,5.39,0,0,1,3.65,2C399.18,75.58,399.7,76.24,400.25,76.85Z"/><path class="cls-3" d="M409.28,89.66c.24-2,.48-3.93.71-5.9a2.39,2.39,0,0,1,2.19,2.43,25.25,25.25,0,0,1-.53,5.81Z"/><path class="cls-3" d="M409.87,78.56c1.45-7.24,3.79-14.14,8-20.31.23-.34.46-.62,0-1a18.43,18.43,0,0,0-5.75-3.34,5.09,5.09,0,0,0-5.95,1.89,19.49,19.49,0,0,0-3.06,6.56,75.36,75.36,0,0,0-1.94,8.38c-.08.42-.21.84-.32,1.26-1.77-.23-2.81-1.66-4.16-2.58a11.75,11.75,0,0,0,2.54-5.07,58.78,58.78,0,0,1,3.62-9.6,17.26,17.26,0,0,1,2.06-3.22,6.64,6.64,0,0,1,7.8-2.3,23.09,23.09,0,0,1,3.59,1.6c3.41,1.71,5.93.66,7.22-3a7.77,7.77,0,0,1,1.27.28,1.38,1.38,0,0,1,.51,2.18c-2.12,2.15-3.05,4.87-3.8,7.69-.18.69-.31,1.4-.52,2.08a2.08,2.08,0,0,1-.81,1.28,12.43,12.43,0,0,0-4.42,5.95,83.51,83.51,0,0,0-3,9.92,16.84,16.84,0,0,1-.55,1.7c-.51,1.21-1,1.26-1.86.23A4.12,4.12,0,0,1,409.87,78.56Z"/><path class="cls-3" d="M431.81,85.94a14.67,14.67,0,0,0,1.51,4.5,14.54,14.54,0,0,1,1.23,3.85c.25,1.92-.46,2.69-2.36,2.55a5.06,5.06,0,0,0-3.56,1.44c-.2.16-.37.49-.69.34s-.22-.48-.24-.75A4.58,4.58,0,0,1,428.9,95a2.84,2.84,0,0,0,0-3.73c-.64-4-1.58-8.06-1.42-12.2a10.9,10.9,0,0,1,.43-3c.24-.77.64-1.41,1.57-1.35s1.19.8,1.28,1.51a35,35,0,0,1,.27,3.69A19.14,19.14,0,0,0,431.81,85.94Z"/><path class="cls-3" d="M441.91,67.31a24.88,24.88,0,0,1,.33,9.38,10.44,10.44,0,0,0,.29,4.84c1.39,4.38.76,8.75-.08,13.12a3.19,3.19,0,0,1-.29.78c-.22.49-.5.92-1.14.89a1.37,1.37,0,0,1-1.18-.89,5.07,5.07,0,0,1-.3-3.05c.23-1.7.53-3.38.76-5.08a7.37,7.37,0,0,0-1.64-6.37c.19-3.46,1.21-6.79,1.6-10.22.11-.94.13-1.9.21-2.85,0-.49-.14-1.19.39-1.38S441.54,67,441.91,67.31Z"/><path class="cls-3" d="M433,61.51c.44-1.47.78-2.89,1.3-4.25.29-.77.4-2,1.72-1.66,1,.26,1.39,1.71.84,2.88A22.61,22.61,0,0,0,435.13,63a10.7,10.7,0,0,0-.32,4.14,5.83,5.83,0,0,1-.16,2.49,1.36,1.36,0,0,1-1.21,1.15c-.75.05-1-.56-1.15-1.15s-.2-1.17-.29-1.76a10.27,10.27,0,0,0-2.11-5.12,2.33,2.33,0,0,1-.7-1.6,1.68,1.68,0,0,1,.66-1.47c.51-.3.88.18,1.26.44C431.73,60.57,432.32,61,433,61.51Z"/><path class="cls-3" d="M415.51,83.2a26.32,26.32,0,0,0,2.27-8.06,21.28,21.28,0,0,0-.11-3.57c0-.27-.27-.71.24-.77s.81,0,.93.54a6.46,6.46,0,0,1,.43,1.6,7.75,7.75,0,0,0,1.36,4.26,5.05,5.05,0,0,1,.75,2.25,2.9,2.9,0,0,1-2.13,3C418.07,82.71,416.86,82.92,415.51,83.2Z"/><path class="cls-3" d="M438.62,39.56a5.78,5.78,0,0,1,3.92,3.68,12.52,12.52,0,0,1,.51,6.7c-.14.75-.39,1.57-1.37,1.52s-1.29-.92-1.24-1.73A25.56,25.56,0,0,0,438.62,39.56Z"/><path class="cls-3" d="M466.05,62.6c.28-3.21.47-6.19.84-9.16a8.21,8.21,0,0,0-.47-4,4.25,4.25,0,0,1-.35-2.22,1.18,1.18,0,0,1,.84-1.06c.59-.15.91.27,1.09.72.5,1.21,1,2.44,1.41,3.68.37,1,.92,1.5,2.08,1.07a4.46,4.46,0,0,1,4.28.81,11.9,11.9,0,0,1,3.57,4.12,4.08,4.08,0,0,1,.07,4.12c-.54,1-1.19,1.16-2,.32a35.7,35.7,0,0,1-2.23-2.81,6,6,0,0,0-2.62-2,1.57,1.57,0,0,0-2.24.94,10.82,10.82,0,0,0-.65,4.1,10.12,10.12,0,0,1-.44,3.19c-.22.61-.49,1.19-1.3,1.19a1.68,1.68,0,0,1-1.64-1.15A4.23,4.23,0,0,1,466.05,62.6Z"/><path class="cls-3" d="M471.76,74.56c-.31.89-.63,1.78-.91,2.68a3.76,3.76,0,0,0,1.29,4.41c3.28,2.49,5.18,6,7.38,9.34,1.3,2,1.37,4.22,1.14,6.48-.08.78-.43,1.56-1.31,1.65s-1.13-.79-1.28-1.46c-.31-1.31-.47-2.67-.77-4A6.45,6.45,0,0,0,476,90.86a1.76,1.76,0,0,0-1.76-.79c-.68.15-.89.75-1,1.33a35.89,35.89,0,0,0-1.37,7.75c0,.67,0,1.55-.89,1.6a1.69,1.69,0,0,1-1.6-1.39,8.41,8.41,0,0,1,.11-4.14,19.2,19.2,0,0,1,2-6.21c1.22-2.17,1.08-4.06-1.51-5.21a2.59,2.59,0,0,1-1.25-2.67,21.3,21.3,0,0,1,.69-5.09C469.78,74.77,470.41,74.42,471.76,74.56Z"/><path class="cls-3" d="M446.15,108.43l8.59,6.59a11.7,11.7,0,0,0,4.76,2.64,2,2,0,0,1,1.53,2,7.34,7.34,0,0,1-.44,2.82,4.34,4.34,0,0,0,.14,3.13,29.18,29.18,0,0,1,1.37,4.08,4,4,0,0,1-.27,2.9,1.22,1.22,0,0,1-1.11.79c-.52,0-.74-.48-.86-.89-.25-.88-.44-1.78-.63-2.67A20.44,20.44,0,0,0,454,120c-1.57-1.65-3.21-3.23-4.72-4.93A13.88,13.88,0,0,1,446.15,108.43Z"/><path class="cls-3" d="M491.07,109a4.87,4.87,0,0,1-1.41,3.15c-1.28,1.54-2.54,3.07-2.82,5.17a5.89,5.89,0,0,0,.05,2c.3,1.43.43,1.49,1.61.64.12-.09.27-.23.4-.22,1.22.08,1.74-.8,2.31-1.62.32-.45.63-1,1.32-.8a1.49,1.49,0,0,1,1,1.38c.28,1.81-1.81,5.11-3.55,5.66a2.65,2.65,0,0,1-2.64-.71c-1.59-1.35-2.69-3.14-4.14-4.64a1.82,1.82,0,0,1,.79-2.65c2-1,1.78-2.46.82-4a5.08,5.08,0,0,1-.83-4.53c.57-1.64,1.42-1.78,2.54-.47s1.62,1.41,2.7.67c.4-.28.74-.89,1.31-.6S491,108.48,491.07,109Z"/><path class="cls-3" d="M483.55,83.89a2.33,2.33,0,0,1,.23-1.22c1.86-3.62,1.61-7.4.9-11.22-.06-.3-.33-.69,0-.87s.7,0,1,.23a2.82,2.82,0,0,1,1,1.86,10.36,10.36,0,0,0,.63,2.17,2.36,2.36,0,0,0,2.51,1.62,2.9,2.9,0,0,1,2.31.79,8.43,8.43,0,0,1,2.55,4.37,2.61,2.61,0,0,1,0,1.18c-.19.78-.3,1.73-1.18,1.93S492.34,84,492,83.34a12.53,12.53,0,0,0-1.78-2.53c-.89-.85-1.59-.76-2.25.27a12.16,12.16,0,0,0-1.23,3.35c-.25.88-.4,1.9-1.6,1.94C484.28,86.39,483.57,85.19,483.55,83.89Z"/><path class="cls-3" d="M449.29,51.29a19.79,19.79,0,0,0-.2-6.42,6.38,6.38,0,0,1,1.86-5.7,11.48,11.48,0,0,0,2.11-2.89c.25-.54.56-1,1.25-.87a1.35,1.35,0,0,1,1,1.33,13.08,13.08,0,0,1-.65,3.87c-.71,3.27-2,6.4-2.37,9.75-.07.71-.11,1.43-.13,2.15a4.25,4.25,0,0,1-.23,1.41,1.26,1.26,0,0,1-1.19,1c-.67,0-1-.47-1.16-1A7.36,7.36,0,0,1,449.29,51.29Z"/><path class="cls-3" d="M444,116.15c0,2.66-1.67,3.69-4,2.49a7.93,7.93,0,0,1-2.41-1.94,28.91,28.91,0,0,1-3-4.34,1.75,1.75,0,0,1-.28-1.48c.31-1,.65-1.06,1.35-.32a14.47,14.47,0,0,0,2.55,2.33,5.64,5.64,0,0,0,3.48,1.06C443.41,113.85,444,114.42,444,116.15Z"/><path class="cls-3" d="M498.4,107.62c-.24,1.44-.16,2.95-.85,4.31-.35.69-.79,1.41-1.67,1.32s-1.07-.88-1.31-1.56a4.72,4.72,0,0,1,.16-3.06,8.31,8.31,0,0,0,.21-4.81c-.17-.62-.28-1.33.54-1.62a1.45,1.45,0,0,1,1.75.7C498.19,104.32,498.17,106,498.4,107.62Z"/><path class="cls-5" d="M401.39,49.05a4.2,4.2,0,0,1-.08,1c-.14.44-.15,1-.68,1.19s-.88-.26-1.19-.6a4.13,4.13,0,0,0-3.1-1.29c-2.37-.14-3.2-1.11-2.89-3.45.09-.71.29-1.31,1.21-.79a.76.76,0,0,0,.56.1c1.57-.57,2.78.15,3.94,1.08a4.23,4.23,0,0,0,1,.65A1.76,1.76,0,0,1,401.39,49.05Z"/></svg>